%TF.GenerationSoftware,KiCad,Pcbnew,7.0.10*%
%TF.CreationDate,2024-04-30T13:39:10-04:00*%
%TF.ProjectId,Lego Connector 2,4c65676f-2043-46f6-9e6e-6563746f7220,rev?*%
%TF.SameCoordinates,Original*%
%TF.FileFunction,Profile,NP*%
%FSLAX46Y46*%
G04 Gerber Fmt 4.6, Leading zero omitted, Abs format (unit mm)*
G04 Created by KiCad (PCBNEW 7.0.10) date 2024-04-30 13:39:10*
%MOMM*%
%LPD*%
G01*
G04 APERTURE LIST*
%TA.AperFunction,Profile*%
%ADD10C,0.100000*%
%TD*%
G04 APERTURE END LIST*
D10*
X121305902Y-77283749D02*
X131615902Y-77293749D01*
X132555902Y-70113749D02*
X131610593Y-70103749D01*
X121307487Y-75520005D02*
G75*
G03*
X121298136Y-73900883I-419195J807167D01*
G01*
X121307460Y-75519954D02*
X121305902Y-77283749D01*
X131615902Y-77293749D02*
X131627553Y-75562686D01*
X131614276Y-73868367D02*
G75*
G03*
X131627553Y-75562686I349716J-844471D01*
G01*
X132551992Y-65066738D02*
X132555902Y-70113749D01*
X121298136Y-73900883D02*
X121301211Y-70103749D01*
X120455902Y-70083749D02*
X120451992Y-65056738D01*
X120451992Y-65056738D02*
X132551992Y-65066738D01*
X121301211Y-70103749D02*
X120455902Y-70083749D01*
X131614254Y-73868313D02*
X131610593Y-70103749D01*
X76043478Y-88727718D02*
X86353478Y-88737718D01*
X86353478Y-88737718D02*
X86365129Y-87006655D01*
X87365000Y-59210000D02*
X87293478Y-81557718D01*
X76045037Y-86963925D02*
G75*
G03*
X76035712Y-85344852I-419289J807148D01*
G01*
X86351830Y-85312282D02*
X86348169Y-81547718D01*
X76036103Y-81553033D02*
X75193478Y-81527718D01*
X86351853Y-85312337D02*
G75*
G03*
X86365129Y-87006654I349725J-844470D01*
G01*
X76045036Y-86963923D02*
X76043478Y-88727718D01*
X75193478Y-81527718D02*
X75235000Y-59190000D01*
X87293478Y-81557718D02*
X86348169Y-81547718D01*
X76035712Y-85344852D02*
X76036103Y-81553033D01*
X75235000Y-59190000D02*
X87365000Y-59210000D01*
M02*
